<?xml version="1.0" encoding="UTF-8"?>
<!DOCTYPE svg PUBLIC "-//W3C//DTD SVG 1.1//EN" "http://www.w3.org/Graphics/SVG/1.1/DTD/svg11.dtd">
<svg version="1.1" xmlns="http://www.w3.org/2000/svg" xmlns:xlink="http://www.w3.org/1999/xlink" x="0" y="0" width="190" height="120" viewBox="0, 0, 190, 120">
  <g id="Layer_1">
    <g>
      <path d="M26.537,73.396 L168.246,73.396 L168.246,92.282 L26.537,92.282 z" fill="#555556"/>
      <path d="M26.537,73.396 L168.246,73.396 L168.246,92.282 L26.537,92.282 z" fill-opacity="0" stroke="#555556" stroke-width="1.5"/>
    </g>
    <g>
      <path d="M45.537,114.577 C35.043,114.577 26.537,106.07 26.537,95.577 C26.537,85.083 35.043,76.577 45.537,76.577 C56.03,76.577 64.537,85.083 64.537,95.577 C64.537,106.07 56.03,114.577 45.537,114.577 z" fill="#FFFFFF"/>
      <path d="M45.537,114.577 C35.043,114.577 26.537,106.07 26.537,95.577 C26.537,85.083 35.043,76.577 45.537,76.577 C56.03,76.577 64.537,85.083 64.537,95.577 C64.537,106.07 56.03,114.577 45.537,114.577 z" fill-opacity="0" stroke="#FFFFFF" stroke-width="1.5"/>
    </g>
    <g>
      <path d="M139.685,114.577 C129.191,114.577 120.685,106.07 120.685,95.577 C120.685,85.083 129.191,76.577 139.685,76.577 C150.178,76.577 158.685,85.083 158.685,95.577 C158.685,106.07 150.178,114.577 139.685,114.577 z" fill="#FFFFFF"/>
      <path d="M139.685,114.577 C129.191,114.577 120.685,106.07 120.685,95.577 C120.685,85.083 129.191,76.577 139.685,76.577 C150.178,76.577 158.685,85.083 158.685,95.577 C158.685,106.07 150.178,114.577 139.685,114.577 z" fill-opacity="0" stroke="#FFFFFF" stroke-width="1.5"/>
    </g>
    <g>
      <path d="M117.835,6.423 L137.95,6.423 L168.246,34.706 L168.246,69.457 L117.835,69.457 z" fill="#555556"/>
      <path d="M117.835,6.423 L137.95,6.423 L168.246,34.706 L168.246,69.457 L117.835,69.457 z" fill-opacity="0" stroke="#555556" stroke-width="1.5"/>
    </g>
    <g>
      <path d="M120.685,10.03 L137.258,10.104 L162.738,35.368 L162.811,42.448 L120.977,42.523" fill="#FFFFFF"/>
      <path d="M120.685,10.03 L137.258,10.104 L162.738,35.368 L162.811,42.448 L120.977,42.523" fill-opacity="0" stroke="#FFFFFF" stroke-width="1.5" stroke-opacity="0.973"/>
    </g>
    <g>
      <path d="M31.461,6.862 L105.496,6.862 C110.305,6.862 114.203,15.735 114.203,26.68 L114.203,49.2 C114.203,60.145 110.305,69.018 105.496,69.018 L31.461,69.018 C26.652,69.018 22.754,60.145 22.754,49.2 L22.754,26.68 C22.754,15.735 26.652,6.862 31.461,6.862 z" fill="#8EC4FF"/>
      <path d="M31.461,6.862 L105.496,6.862 C110.305,6.862 114.203,15.735 114.203,26.68 L114.203,49.2 C114.203,60.145 110.305,69.018 105.496,69.018 L31.461,69.018 C26.652,69.018 22.754,60.145 22.754,49.2 L22.754,26.68 C22.754,15.735 26.652,6.862 31.461,6.862 z" fill-opacity="0" stroke="#58A4FF" stroke-width="1.5"/>
    </g>
    <g>
      <path d="M45.537,112.577 C36.148,112.577 28.537,104.966 28.537,95.577 C28.537,86.188 36.148,78.577 45.537,78.577 C54.926,78.577 62.537,86.188 62.537,95.577 C62.537,104.966 54.926,112.577 45.537,112.577 z" fill="#D2D2D2"/>
      <path d="M45.537,112.577 C36.148,112.577 28.537,104.966 28.537,95.577 C28.537,86.188 36.148,78.577 45.537,78.577 C54.926,78.577 62.537,86.188 62.537,95.577 C62.537,104.966 54.926,112.577 45.537,112.577 z" fill-opacity="0" stroke="#555556" stroke-width="1.5"/>
    </g>
    <g>
      <path d="M139.685,112.577 C130.296,112.577 122.685,104.966 122.685,95.577 C122.685,86.188 130.296,78.577 139.685,78.577 C149.074,78.577 156.685,86.188 156.685,95.577 C156.685,104.966 149.074,112.577 139.685,112.577 z" fill="#D2D2D2"/>
      <path d="M139.685,112.577 C130.296,112.577 122.685,104.966 122.685,95.577 C122.685,86.188 130.296,78.577 139.685,78.577 C149.074,78.577 156.685,86.188 156.685,95.577 C156.685,104.966 149.074,112.577 139.685,112.577 z" fill-opacity="0" stroke="#555556" stroke-width="1.5"/>
    </g>
  </g>
</svg>
