<?xml version="1.0" encoding="UTF-8"?>
<!DOCTYPE svg PUBLIC "-//W3C//DTD SVG 1.1//EN" "http://www.w3.org/Graphics/SVG/1.1/DTD/svg11.dtd">
<svg version="1.1" xmlns="http://www.w3.org/2000/svg" xmlns:xlink="http://www.w3.org/1999/xlink" x="0" y="0" width="190" height="120" viewBox="0, 0, 190, 120">
  <g id="Background">
    <rect x="0" y="0" width="190" height="120" fill="#FFFFFF"/>
  </g>
  <g id="Layer_1">
    <g>
      <path d="M27.457,13.776 L163.543,13.776 C169.44,13.776 174.221,17.888 174.221,22.961 L174.221,73.736 C174.221,78.809 169.44,82.921 163.543,82.921 L27.457,82.921 C21.56,82.921 16.779,78.809 16.779,73.736 L16.779,22.961 C16.779,17.888 21.56,13.776 27.457,13.776 z" fill="#8EC4FF"/>
      <path d="M27.457,13.776 L163.543,13.776 C169.44,13.776 174.221,17.888 174.221,22.961 L174.221,73.736 C174.221,78.809 169.44,82.921 163.543,82.921 L27.457,82.921 C21.56,82.921 16.779,78.809 16.779,73.736 L16.779,22.961 C16.779,17.888 21.56,13.776 27.457,13.776 z" fill-opacity="0" stroke="#58A4FF" stroke-width="1.5"/>
    </g>
    <g>
      <path d="M26.397,90.224 L168.107,90.224 L168.107,96.666 L26.397,96.666 z" fill="#555556"/>
      <path d="M26.397,90.224 L168.107,90.224 L168.107,96.666 L26.397,96.666 z" fill-opacity="0" stroke="#555556" stroke-width="1.5"/>
    </g>
    <g>
      <path d="M40.639,107.224 C35.945,107.224 32.139,103.418 32.139,98.724 C32.139,94.029 35.945,90.224 40.639,90.224 C45.334,90.224 49.139,94.029 49.139,98.724 C49.139,103.418 45.334,107.224 40.639,107.224 z" fill="#555556"/>
      <path d="M40.639,107.224 C35.945,107.224 32.139,103.418 32.139,98.724 C32.139,94.029 35.945,90.224 40.639,90.224 C45.334,90.224 49.139,94.029 49.139,98.724 C49.139,103.418 45.334,107.224 40.639,107.224 z" fill-opacity="0" stroke="#555556" stroke-width="1.5"/>
    </g>
    <g>
      <path d="M70.596,107.224 C65.902,107.224 62.096,103.418 62.096,98.724 C62.096,94.029 65.902,90.224 70.596,90.224 C75.291,90.224 79.096,94.029 79.096,98.724 C79.096,103.418 75.291,107.224 70.596,107.224 z" fill="#555556"/>
      <path d="M70.596,107.224 C65.902,107.224 62.096,103.418 62.096,98.724 C62.096,94.029 65.902,90.224 70.596,90.224 C75.291,90.224 79.096,94.029 79.096,98.724 C79.096,103.418 75.291,107.224 70.596,107.224 z" fill-opacity="0" stroke="#555556" stroke-width="1.5"/>
    </g>
    <g>
      <path d="M125.713,107.224 C121.019,107.224 117.213,103.418 117.213,98.724 C117.213,94.029 121.019,90.224 125.713,90.224 C130.408,90.224 134.213,94.029 134.213,98.724 C134.213,103.418 130.408,107.224 125.713,107.224 z" fill="#555556"/>
      <path d="M125.713,107.224 C121.019,107.224 117.213,103.418 117.213,98.724 C117.213,94.029 121.019,90.224 125.713,90.224 C130.408,90.224 134.213,94.029 134.213,98.724 C134.213,103.418 130.408,107.224 125.713,107.224 z" fill-opacity="0" stroke="#555556" stroke-width="1.5"/>
    </g>
    <g>
      <path d="M156.579,107.224 C151.884,107.224 148.079,103.418 148.079,98.724 C148.079,94.029 151.884,90.224 156.579,90.224 C161.273,90.224 165.079,94.029 165.079,98.724 C165.079,103.418 161.273,107.224 156.579,107.224 z" fill="#555556"/>
      <path d="M156.579,107.224 C151.884,107.224 148.079,103.418 148.079,98.724 C148.079,94.029 151.884,90.224 156.579,90.224 C161.273,90.224 165.079,94.029 165.079,98.724 C165.079,103.418 161.273,107.224 156.579,107.224 z" fill-opacity="0" stroke="#555556" stroke-width="1.5"/>
    </g>
  </g>
</svg>
