<?xml version="1.0" encoding="UTF-8"?>
<!DOCTYPE svg PUBLIC "-//W3C//DTD SVG 1.1//EN" "http://www.w3.org/Graphics/SVG/1.1/DTD/svg11.dtd">
<svg version="1.1" xmlns="http://www.w3.org/2000/svg" xmlns:xlink="http://www.w3.org/1999/xlink" x="0" y="0" width="190" height="120" viewBox="0, 0, 190, 120">
  <g id="Background">
    <rect x="0" y="0" width="190" height="120" fill="#FFFFFF"/>
  </g>
  <g id="Layer_1">
    <g>
      <path d="M27.457,13.776 L163.543,13.776 C169.44,13.776 174.221,19.294 174.221,26.1 L174.221,94.228 C174.221,101.035 169.44,106.552 163.543,106.552 L27.457,106.552 C21.56,106.552 16.779,101.035 16.779,94.228 L16.779,26.1 C16.779,19.294 21.56,13.776 27.457,13.776 z" fill="#8EC4FF"/>
      <path d="M27.457,13.776 L163.543,13.776 C169.44,13.776 174.221,19.294 174.221,26.1 L174.221,94.228 C174.221,101.035 169.44,106.552 163.543,106.552 L27.457,106.552 C21.56,106.552 16.779,101.035 16.779,94.228 L16.779,26.1 C16.779,19.294 21.56,13.776 27.457,13.776 z" fill-opacity="0" stroke="#58A4FF" stroke-width="1.5"/>
    </g>
    <path d="M96.5,13.776 L96.5,106.552" fill-opacity="0" stroke="#58A4FF" stroke-width="1.5"/>
    <path d="M16.779,60.537 L174.221,60.697" fill-opacity="0" stroke="#58A4FF" stroke-width="1.5"/>
  </g>
</svg>
