<?xml version="1.0" encoding="UTF-8"?>
<!DOCTYPE svg PUBLIC "-//W3C//DTD SVG 1.1//EN" "http://www.w3.org/Graphics/SVG/1.1/DTD/svg11.dtd">
<svg version="1.1" xmlns="http://www.w3.org/2000/svg" xmlns:xlink="http://www.w3.org/1999/xlink" x="0" y="0" width="90" height="100" viewBox="0, 0, 90, 100">
  <defs>
    <linearGradient id="Gradient_1" gradientUnits="userSpaceOnUse" x1="50.601" y1="84.824" x2="86.002" y2="84.824">
      <stop offset="0" stop-color="#F5FEFF"/>
      <stop offset="0.512" stop-color="#FAD890"/>
      <stop offset="1" stop-color="#EF8D04"/>
    </linearGradient>
    <linearGradient id="Gradient_2" gradientUnits="userSpaceOnUse" x1="64.099" y1="88.746" x2="64.282" y2="88.746">
      <stop offset="0" stop-color="#F5FEFF"/>
      <stop offset="0.512" stop-color="#FAD890"/>
      <stop offset="1" stop-color="#EF8D04"/>
    </linearGradient>
  </defs>
  <g id="Layer_2">
    <g>
      <path d="M21.402,21.503 L40.356,21.644 C40.356,21.644 40.663,26 42.453,28.993 C44.242,31.985 45.807,32.576 47.652,33.448 C49.498,34.321 54.04,34.651 56.039,33.683 C58.038,32.715 59.251,31.381 60.652,28.836 C62.052,26.292 62.916,21.566 62.916,21.566 L78.264,21.503 C78.264,21.503 81.911,24.109 84.899,30.16 C87.819,36.073 88.111,42.861 88.111,42.861 L78.257,42.861 L78.264,88.701 L21.402,88.701 z" fill="#2FB82A"/>
      <path d="M21.402,21.503 L40.356,21.644 C40.356,21.644 40.663,26 42.453,28.993 C44.242,31.985 45.807,32.576 47.652,33.448 C49.498,34.321 54.04,34.651 56.039,33.683 C58.038,32.715 59.251,31.381 60.652,28.836 C62.052,26.292 62.916,21.566 62.916,21.566 L78.264,21.503 C78.264,21.503 81.911,24.109 84.899,30.16 C87.819,36.073 88.111,42.861 88.111,42.861 L78.257,42.861 L78.264,88.701 L21.402,88.701 z" fill-opacity="0" stroke="#80FF74" stroke-width="1.5"/>
    </g>
  </g>
  <g id="Layer_1">
    <g>
      <path d="M15.317,7.196 L15.317,7.196 L15.317,7.196 L15.317,7.196 L15.244,16.904 C15.244,16.904 12.398,17.926 8.379,24.823 C8.31,33.255 8.602,93.401 8.602,93.401 L9.77,96.102 L29.332,96.102 L30.354,93.401 C30.354,93.401 30.208,33.547 29.916,24.715 C26.996,18.583 23.639,16.977 23.639,16.977 L23.347,7.123 L15.317,7.196 z" fill="#6DC3FF"/>
      <path d="M15.317,7.196 L15.317,7.196 L15.317,7.196 L15.317,7.196 L15.244,16.904 C15.244,16.904 12.398,17.926 8.379,24.823 C8.31,33.255 8.602,93.401 8.602,93.401 L9.77,96.102 L29.332,96.102 L30.354,93.401 C30.354,93.401 30.208,33.547 29.916,24.715 C26.996,18.583 23.639,16.977 23.639,16.977 L23.347,7.123 L15.317,7.196 z" fill-opacity="0" stroke="#427599" stroke-width="1.5"/>
    </g>
    <g>
      <path d="M10.646,28.875 L15.39,28.875 L15.39,87.416 L10.646,87.416 z" fill="#FFFFFF"/>
      <path d="M10.646,28.875 L15.39,28.875 L15.39,87.416 L10.646,87.416 z" fill-opacity="0" stroke="#FFFFFF" stroke-width="1.5"/>
    </g>
    <g>
      <path d="M62.127,73.547 L74.476,73.547 C80.842,73.547 86.002,78.596 86.002,84.824 L86.002,84.824 C86.002,91.053 80.842,96.102 74.476,96.102 L62.127,96.102 C55.761,96.102 50.601,91.053 50.601,84.824 L50.601,84.824 C50.601,78.596 55.761,73.547 62.127,73.547 z" fill="url(#Gradient_1)"/>
      <path d="M62.127,73.547 L74.476,73.547 C80.842,73.547 86.002,78.596 86.002,84.824 L86.002,84.824 C86.002,91.053 80.842,96.102 74.476,96.102 L62.127,96.102 C55.761,96.102 50.601,91.053 50.601,84.824 L50.601,84.824 C50.601,78.596 55.761,73.547 62.127,73.547 z" fill-opacity="0" stroke="#FFB843" stroke-width="1.5"/>
    </g>
    <g>
      <path d="M64.145,88.701 L64.236,88.701 C64.261,88.701 64.282,88.721 64.282,88.746 L64.282,88.746 C64.282,88.77 64.261,88.79 64.236,88.79 L64.145,88.79 C64.119,88.79 64.099,88.77 64.099,88.746 L64.099,88.746 C64.099,88.721 64.119,88.701 64.145,88.701 z" fill="url(#Gradient_2)"/>
      <path d="M64.145,88.701 L64.236,88.701 C64.261,88.701 64.282,88.721 64.282,88.746 L64.282,88.746 C64.282,88.77 64.261,88.79 64.236,88.79 L64.145,88.79 C64.119,88.79 64.099,88.77 64.099,88.746 L64.099,88.746 C64.099,88.721 64.119,88.701 64.145,88.701 z" fill-opacity="0" stroke="#FFB843" stroke-width="1.5"/>
    </g>
  </g>
</svg>
