<?xml version="1.0" encoding="UTF-8"?>
<!DOCTYPE svg PUBLIC "-//W3C//DTD SVG 1.1//EN" "http://www.w3.org/Graphics/SVG/1.1/DTD/svg11.dtd">
<svg version="1.1" xmlns="http://www.w3.org/2000/svg" xmlns:xlink="http://www.w3.org/1999/xlink" x="0" y="0" width="190" height="120" viewBox="0, 0, 190, 120">
  <g id="Background">
    <rect x="0" y="0" width="190" height="120" fill="#FFFFFF"/>
  </g>
  <defs>
    <linearGradient id="Gradient_1" gradientUnits="userSpaceOnUse" x1="115.615" y1="99.189" x2="163.133" y2="99.189">
      <stop offset="0" stop-color="#F5FEFF"/>
      <stop offset="0.512" stop-color="#FAD890"/>
      <stop offset="1" stop-color="#EF8D04"/>
    </linearGradient>
  </defs>
  <g id="Layer_1">
    <g>
      <path d="M72.688,28.509 L88.706,28.58 C88.706,28.58 89.041,34.118 90.993,37.924 C92.945,41.729 94.652,42.48 96.664,43.59 C98.677,44.699 103.632,45.118 105.812,43.888 C107.993,42.657 109.316,40.96 110.844,37.725 C112.372,34.489 113.314,28.48 113.314,28.48 L130.054,28.4 C130.054,28.4 134.033,31.714 137.292,39.409 C140.477,46.927 140.795,55.559 140.795,55.559 L130.047,55.559 L130.054,113.849 L73.828,113.644 L73.768,53.763 L60.687,53.763 C60.687,53.763 61.287,43.2 65.187,36.764 C69.088,30.328 72.688,28.509 72.688,28.509 z" fill="#2FB82A"/>
      <path d="M72.688,28.509 L88.706,28.58 C88.706,28.58 89.041,34.118 90.993,37.924 C92.945,41.729 94.652,42.48 96.664,43.59 C98.677,44.699 103.632,45.118 105.812,43.888 C107.993,42.657 109.316,40.96 110.844,37.725 C112.372,34.489 113.314,28.48 113.314,28.48 L130.054,28.4 C130.054,28.4 134.033,31.714 137.292,39.409 C140.477,46.927 140.795,55.559 140.795,55.559 L130.047,55.559 L130.054,113.849 L73.828,113.644 L73.768,53.763 L60.687,53.763 C60.687,53.763 61.287,43.2 65.187,36.764 C69.088,30.328 72.688,28.509 72.688,28.509 z" fill-opacity="0" stroke="#80FF74" stroke-width="1.5"/>
    </g>
    <g>
      <path d="M131.086,84.529 L147.662,84.529 C156.206,84.529 163.133,91.092 163.133,99.189 L163.133,99.189 C163.133,107.285 156.206,113.849 147.662,113.849 L131.086,113.849 C122.541,113.849 115.615,107.285 115.615,99.189 L115.615,99.189 C115.615,91.092 122.541,84.529 131.086,84.529 z" fill="url(#Gradient_1)"/>
      <path d="M131.086,84.529 L147.662,84.529 C156.206,84.529 163.133,91.092 163.133,99.189 L163.133,99.189 C163.133,107.285 156.206,113.849 147.662,113.849 L131.086,113.849 C122.541,113.849 115.615,107.285 115.615,99.189 L115.615,99.189 C115.615,91.092 122.541,84.529 131.086,84.529 z" fill-opacity="0" stroke="#FFB843" stroke-width="1.5"/>
    </g>
    <g>
      <path d="M52.682,2.709 L52.682,2.709 L52.682,2.709 L52.682,2.709 L52.567,14.845 C52.567,14.845 48.074,16.122 41.73,24.744 C41.622,35.285 42.083,110.473 42.083,110.473 L43.926,113.849 L74.802,113.849 L76.415,110.473 C76.415,110.473 76.185,35.649 75.724,24.609 C71.116,16.944 65.816,14.936 65.816,14.936 L65.355,2.618 L52.682,2.709 z" fill="#6DC3FF"/>
      <path d="M52.682,2.709 L52.682,2.709 L52.682,2.709 L52.682,2.709 L52.567,14.845 C52.567,14.845 48.074,16.122 41.73,24.744 C41.622,35.285 42.083,110.473 42.083,110.473 L43.926,113.849 L74.802,113.849 L76.415,110.473 C76.415,110.473 76.185,35.649 75.724,24.609 C71.116,16.944 65.816,14.936 65.816,14.936 L65.355,2.618 L52.682,2.709 z" fill-opacity="0" stroke="#427599" stroke-width="1.5"/>
    </g>
    <path d="M44.63,28.463 L54.995,28.463 L54.995,107.257 L44.63,107.257 z" fill="#FFFFFF"/>
  </g>
</svg>
