<?xml version="1.0" encoding="UTF-8"?>
<!DOCTYPE svg PUBLIC "-//W3C//DTD SVG 1.1//EN" "http://www.w3.org/Graphics/SVG/1.1/DTD/svg11.dtd">
<svg version="1.1" xmlns="http://www.w3.org/2000/svg" xmlns:xlink="http://www.w3.org/1999/xlink" x="0" y="0" width="190" height="120" viewBox="0, 0, 190, 120">
  <g id="Background">
    <rect x="0" y="0" width="190" height="120" fill="#FFFFFF"/>
  </g>
  <g id="Layer_1">
    <g>
      <path d="M15.325,73.176 L157.034,73.176 L157.034,92.063 L15.325,92.063 z" fill="#555556"/>
      <path d="M15.325,73.176 L157.034,73.176 L157.034,92.063 L15.325,92.063 z" fill-opacity="0" stroke="#555556" stroke-width="1.5"/>
    </g>
    <g>
      <path d="M34.325,114.357 C23.831,114.357 15.325,105.851 15.325,95.357 C15.325,84.864 23.831,76.357 34.325,76.357 C44.818,76.357 53.325,84.864 53.325,95.357 C53.325,105.851 44.818,114.357 34.325,114.357 z" fill="#FFFFFF"/>
      <path d="M34.325,114.357 C23.831,114.357 15.325,105.851 15.325,95.357 C15.325,84.864 23.831,76.357 34.325,76.357 C44.818,76.357 53.325,84.864 53.325,95.357 C53.325,105.851 44.818,114.357 34.325,114.357 z" fill-opacity="0" stroke="#FFFFFF" stroke-width="1.5"/>
    </g>
    <g>
      <path d="M128.473,114.357 C117.979,114.357 109.473,105.851 109.473,95.357 C109.473,84.864 117.979,76.357 128.473,76.357 C138.966,76.357 147.473,84.864 147.473,95.357 C147.473,105.851 138.966,114.357 128.473,114.357 z" fill="#FFFFFF"/>
      <path d="M128.473,114.357 C117.979,114.357 109.473,105.851 109.473,95.357 C109.473,84.864 117.979,76.357 128.473,76.357 C138.966,76.357 147.473,84.864 147.473,95.357 C147.473,105.851 138.966,114.357 128.473,114.357 z" fill-opacity="0" stroke="#FFFFFF" stroke-width="1.5"/>
    </g>
    <g>
      <path d="M25.394,6.643 L143.181,6.643 C150.832,6.643 157.034,15.391 157.034,26.182 L157.034,48.386 C157.034,59.177 150.832,67.925 143.181,67.925 L25.394,67.925 C17.744,67.925 11.541,59.177 11.541,48.386 L11.541,26.182 C11.541,15.391 17.744,6.643 25.394,6.643 z" fill="#8EC4FF"/>
      <path d="M25.394,6.643 L143.181,6.643 C150.832,6.643 157.034,15.391 157.034,26.182 L157.034,48.386 C157.034,59.177 150.832,67.925 143.181,67.925 L25.394,67.925 C17.744,67.925 11.541,59.177 11.541,48.386 L11.541,26.182 C11.541,15.391 17.744,6.643 25.394,6.643 z" fill-opacity="0" stroke="#58A4FF" stroke-width="1.5"/>
    </g>
    <g>
      <path d="M34.325,112.357 C24.936,112.357 17.325,104.746 17.325,95.357 C17.325,85.968 24.936,78.357 34.325,78.357 C43.713,78.357 51.325,85.968 51.325,95.357 C51.325,104.746 43.713,112.357 34.325,112.357 z" fill="#D2D2D2"/>
      <path d="M34.325,112.357 C24.936,112.357 17.325,104.746 17.325,95.357 C17.325,85.968 24.936,78.357 34.325,78.357 C43.713,78.357 51.325,85.968 51.325,95.357 C51.325,104.746 43.713,112.357 34.325,112.357 z" fill-opacity="0" stroke="#555556" stroke-width="1.5"/>
    </g>
    <g>
      <path d="M128.473,112.357 C119.084,112.357 111.473,104.746 111.473,95.357 C111.473,85.968 119.084,78.357 128.473,78.357 C137.861,78.357 145.473,85.968 145.473,95.357 C145.473,104.746 137.861,112.357 128.473,112.357 z" fill="#D2D2D2"/>
      <path d="M128.473,112.357 C119.084,112.357 111.473,104.746 111.473,95.357 C111.473,85.968 119.084,78.357 128.473,78.357 C137.861,78.357 145.473,85.968 145.473,95.357 C145.473,104.746 137.861,112.357 128.473,112.357 z" fill-opacity="0" stroke="#555556" stroke-width="1.5"/>
    </g>
    <g>
      <path d="M147.473,76.357 L176.21,76.357 L176.21,81.193 L147.473,81.193 z" fill="#555556"/>
      <path d="M147.473,76.357 L176.21,76.357 L176.21,81.193 L147.473,81.193 z" fill-opacity="0" stroke="#555556" stroke-width="1.5"/>
    </g>
    <g>
      <path d="M174.444,76.357 L176.998,76.357 L176.998,86.751 L174.444,86.751 z" fill="#555556"/>
      <path d="M174.444,76.357 L176.998,76.357 L176.998,86.751 L174.444,86.751 z" fill-opacity="0" stroke="#555556" stroke-width="1.5"/>
    </g>
  </g>
</svg>
