<?xml version="1.0" encoding="UTF-8"?>
<!DOCTYPE svg PUBLIC "-//W3C//DTD SVG 1.1//EN" "http://www.w3.org/Graphics/SVG/1.1/DTD/svg11.dtd">
<svg version="1.1" xmlns="http://www.w3.org/2000/svg" xmlns:xlink="http://www.w3.org/1999/xlink" x="0" y="0" width="190" height="120" viewBox="0, 0, 190, 120">
  <g id="Background">
    <rect x="0" y="0" width="190" height="120" fill="#FFFFFF"/>
  </g>
  <g id="Layer_1">
    <g>
      <path d="M29.336,12.351 L165.507,12.351 C171.408,12.351 176.191,17.216 176.191,23.219 L176.191,83.297 C176.191,89.299 171.408,94.165 165.507,94.165 L29.336,94.165 C23.435,94.165 18.651,89.299 18.651,83.297 L18.651,23.219 C18.651,17.216 23.435,12.351 29.336,12.351 z" fill="#8EC4FF"/>
      <path d="M29.336,12.351 L165.507,12.351 C171.408,12.351 176.191,17.216 176.191,23.219 L176.191,83.297 C176.191,89.299 171.408,94.165 165.507,94.165 L29.336,94.165 C23.435,94.165 18.651,89.299 18.651,83.297 L18.651,23.219 C18.651,17.216 23.435,12.351 29.336,12.351 z" fill-opacity="0" stroke="#58A4FF" stroke-width="1.5"/>
    </g>
    <g>
      <path d="M26.566,102.142 L168.276,102.142 L168.276,108.584 L26.566,108.584 z" fill="#555556"/>
      <path d="M26.566,102.142 L168.276,102.142 L168.276,108.584 L26.566,108.584 z" fill-opacity="0" stroke="#555556" stroke-width="1.5"/>
    </g>
  </g>
</svg>
